<svg xmlns="http://www.w3.org/2000/svg" viewBox="0 0 64 64">
  <rect width="64" height="64" rx="16" fill="#111111"/>
  <path
    d="M31.4 9.8c.5-1.9 3.2-1.9 3.7 0l3.7 13.4c.2.7.8 1.3 1.5 1.5l13.5 3.7c1.9.5 1.9 3.2 0 3.7l-13.5 3.7c-.7.2-1.3.8-1.5 1.5l-3.7 13.4c-.5 1.9-3.2 1.9-3.7 0l-3.7-13.4c-.2-.7-.8-1.3-1.5-1.5l-13.5-3.7c-1.9-.5-1.9-3.2 0-3.7l13.5-3.7c.7-.2 1.3-.8 1.5-1.5l3.7-13.4Z"
    fill="#ffffff"
  />
  <path
    d="M49.4 7.9c.3-1.1 1.9-1.1 2.2 0l1.2 4.3c.1.4.4.7.8.8l4.3 1.2c1.1.3 1.1 1.9 0 2.2l-4.3 1.2c-.4.1-.7.4-.8.8l-1.2 4.3c-.3 1.1-1.9 1.1-2.2 0l-1.2-4.3c-.1-.4-.4-.7-.8-.8l-4.3-1.2c-1.1-.3-1.1-1.9 0-2.2l4.3-1.2c.4-.1.7-.4.8-.8l1.2-4.3Z"
    fill="#fff36e"
  />
</svg>
